{"title":"Centurion.2010.DVDRip.XviD.AC3-LEGi0N","uid":5766777,"size":1485797546,"categoryP":"video","categoryS":"movies","magnet":"?xt=urn:btih:8e326ad862e59469a1a6b0180467319834645823&amp;dn=Centurion.2010.DVDRip.XviD.AC3-LEGi0N&amp;tr=udp%3A%2F%2Ftracker.openbittorrent.com%3A80&amp;tr=udp%3A%2F%2Fopen.demonii.com%3A1337&amp;tr=udp%3A%2F%2Ftracker.coppersurfer.tk%3A6969&amp;tr=udp%3A%2F%2Fexodus.desync.com%3A6969","seeders":0,"leechers":0,"uploader":"TvTeam","files":5,"time":1281941477,"description":". \n  &lt;a href=&quot;\nhttp://www.torrentday.com/&quot; rel=&quot;nofollow&quot; target=&quot;_NEW&quot;&gt;\nhttp://www.torrentday.com/&lt;/a&gt;        :     The Hottest Private Tracker On The Net!!!\n\n\n               www . TorrentDay . Com \n(((((((((((((= Enjoy No RAR releases =))))))))))))))))))))\n\n\n...................................NFO:....................................\n\n.[img]http://leetleech.org/images/62448982534336528890.jpg[/img] \n\n[b]Centurion 2010 DVDRip XviD AC3-LEGi0N \n\n[img]http://leetleech.org/images/48874973695367351744.png[/img]\n[color=red]General[/color]\nFormat:AVI \nFile size: 1.37 GiB\nDuration: 1h 33mn\nOverall bit rate: 2 096 Kbps\nIMDb Rating: 6.8/10   951 votes \nGenre: Action | Adventure | Drama | History | Thriller | War\nRelease Date: 27 August 2010  \nIMDb Link: http://www.imdb.com/title/tt1020558/ Link:Source: DVDR PAL-ALLiANCE  \n\n[color=red]Video[/color]\nFormat: MPEG-4 Visual\nFormat profile: Streaming Video@L1\nFormat settings, BVOP: Yes\nFormat settings, QPel: No\nFormat settings, GMC: No warppoints\nFormat settings, Matrix: Default (H.263)\nMuxing mode: Packed bitstream\nCodec ID: XVID\nBit rate: 1 638 Kbps\nWidth: 720 pixels\nHeight: 304 pixels\nDisplay aspect ratio: 2.35\nFrame rate: 25.000 fps\nResolution: 24 bits\nColorimetry: 4:2:0\nScan type: Progressive\nBits/(Pixel*Frame): 0.299\nStream size: 1.07 GiB (78%)\n\n[color=red]Audio[/color]\nFormat: AC-3\nBit rate mode: Constant\nBit rate: 448 Kbps\nChannel(s): 6 channels\nSampling rate: 48.0 KHz\nStream size: 300 MiB (21%)\n\n[img]http://leetleech.org/images/89524873606771859129.png[/img]\nA splinter group of Roman soldiers fight for their lives behind \nenemy lines after their legion is decimated in a devastating \nguerrilla attack.\n\n[color=red]Tagline:[/color]\nFight or die.  \n\n[img]http://leetleech.org/images/84434050717770922575.png[/img]\nMichael Fassbender\t... \tQuintus Dias\nDominic West\t... \tVirilus\nOlga Kurylenko\t... \tEtain\nNoel Clarke\t... \tMacros\nDavid Morrissey\t... \tBothos\nJJ Feild\t... \tThax\nAxelle Carolyn\t... \tAeron\nRiz Ahmed\t\t\nDave Legeno\t... \tVortix\nUlrich Thomsen\t... \tGorlacon   \n\n[color=red]GREETZ[/color]\nNoir | xXTHORNXx | bigimac | LUSi |\n\nkempas | KaN1vE | mike160 | skillz |\n\nLungbuster | Sheikh | DiLLoN1369 |\n\nFLAWL3SS | AND ALL P2P!\n\n[color=red]SAMPLE INCLUDED[/color][/b]\n\n[img]http://leetleech.org/images/95521316153253938506.png[/img]\n[img]http://leetleech.org/images/36439999183370403489.png[/img] \n[img]http://leetleech.org/images/59934319797649740785.png[/img] \n[img]http://leetleech.org/images/94151240786779586514.png[/img] \n[img]http://leetleech.org/images/72149290817814636573.png[/img]\n[img]http://leetleech.org/images/08620554460378952737.png[/img]\n[img]http://leetleech.org/images/34811698193259938413.png[/img]\n[img]http://leetleech.org/images/12755021538703799215.png[/img]","torrent":{"xt":"urn:btih:8e326ad862e59469a1a6b0180467319834645823","amp;dn":"Centurion.2010.DVDRip.XviD.AC3-LEGi0N","amp;tr":["udp%3A%2F%2Ftracker.openbittorrent.com%3A80","udp%3A%2F%2Fopen.demonii.com%3A1337","udp%3A%2F%2Ftracker.coppersurfer.tk%3A6969","udp%3A%2F%2Fexodus.desync.com%3A6969"],"infoHash":"8e326ad862e59469a1a6b0180467319834645823","infoHashBuffer":{"type":"Buffer","data":[142,50,106,216,98,229,148,105,161,166,176,24,4,103,49,152,52,100,88,35]},"announce":[],"urlList":[]}}